<svg id="loginProffy" xmlns="http://www.w3.org/2000/svg" width="768" height="820" viewBox="0 0 768 820">
  <rect id="Rectangle_1" data-name="Rectangle 1" width="768" height="820" fill="#8257e5"/>
  <path id="Path_1" data-name="Path 1" d="M590.569,737.405a9.081,9.081,0,1,1,9.132-9.081A9.107,9.107,0,0,1,590.569,737.405Z" fill="none" stroke="#04d361" stroke-linecap="round" stroke-linejoin="round" stroke-miterlimit="10" stroke-width="3"/>
  <path id="Path_2" data-name="Path 2" d="M584.269,734.888l-6.458,6.406" fill="none" stroke="#04d361" stroke-linecap="round" stroke-linejoin="round" stroke-miterlimit="10" stroke-width="3"/>
  <path id="Path_3" data-name="Path 3" d="M419.217,78l-9.608,9.554" fill="none" stroke="#04d361" stroke-linecap="round" stroke-linejoin="round" stroke-miterlimit="10" stroke-width="3"/>
  <path id="Path_4" data-name="Path 4" d="M419.217,87.554,409.609,78" fill="none" stroke="#04d361" stroke-linecap="round" stroke-linejoin="round" stroke-miterlimit="10" stroke-width="3"/>
  <path id="Path_5" data-name="Path 5" d="M405.461,652.763l-9.607,9.554" fill="none" stroke="#04d361" stroke-linecap="round" stroke-linejoin="round" stroke-miterlimit="10" stroke-width="3"/>
  <path id="Path_6" data-name="Path 6" d="M405.461,662.317l-9.607-9.554" fill="none" stroke="#04d361" stroke-linecap="round" stroke-linejoin="round" stroke-miterlimit="10" stroke-width="3"/>
  <path id="Path_7" data-name="Path 7" d="M105.431,263.274H91.844" fill="none" stroke="#04d361" stroke-linecap="round" stroke-linejoin="round" stroke-miterlimit="10" stroke-width="3"/>
  <path id="Path_8" data-name="Path 8" d="M98.639,270.046V256.52" fill="none" stroke="#04d361" stroke-linecap="round" stroke-linejoin="round" stroke-miterlimit="10" stroke-width="3"/>
  <path id="Path_9" data-name="Path 9" d="M502.866,214.422a8.211,8.211,0,1,1,8.257-8.211A8.237,8.237,0,0,1,502.866,214.422Z" fill="none" stroke="#04d361" stroke-linecap="round" stroke-linejoin="round" stroke-miterlimit="10" stroke-width="3"/>
  <path id="Path_10" data-name="Path 10" d="M667.743,421.169A8.211,8.211,0,1,1,676,412.958,8.237,8.237,0,0,1,667.743,421.169Z" fill="none" stroke="#04d361" stroke-linecap="round" stroke-linejoin="round" stroke-miterlimit="10" stroke-width="3"/>
  <path id="Path_11" data-name="Path 11" d="M148.592,547.906a8.211,8.211,0,1,1,8.256-8.211A8.236,8.236,0,0,1,148.592,547.906Z" fill="none" stroke="#04d361" stroke-linecap="round" stroke-linejoin="round" stroke-miterlimit="10" stroke-width="3"/>
  <path id="Path_12" data-name="Path 12" d="M247.224,99.247a2.99,2.99,0,1,0,2.99-2.974A2.982,2.982,0,0,0,247.224,99.247Z" fill="#9871f5"/>
  <path id="Path_13" data-name="Path 13" d="M247.224,120.02a2.99,2.99,0,1,0,2.99-2.974A2.982,2.982,0,0,0,247.224,120.02Z" fill="#9871f5"/>
  <path id="Path_14" data-name="Path 14" d="M247.224,140.774a2.99,2.99,0,1,0,2.99-2.973A2.981,2.981,0,0,0,247.224,140.774Z" fill="#9871f5"/>
  <path id="Path_15" data-name="Path 15" d="M247.224,161.545a2.99,2.99,0,1,0,2.99-2.974A2.982,2.982,0,0,0,247.224,161.545Z" fill="#9871f5"/>
  <path id="Path_16" data-name="Path 16" d="M247.224,182.3a2.99,2.99,0,1,0,2.99-2.974A2.982,2.982,0,0,0,247.224,182.3Z" fill="#9871f5"/>
  <path id="Path_17" data-name="Path 17" d="M247.224,203.071a2.99,2.99,0,1,0,2.99-2.973A2.981,2.981,0,0,0,247.224,203.071Z" fill="#9871f5"/>
  <path id="Path_18" data-name="Path 18" d="M226.35,99.247a2.991,2.991,0,1,0,2.991-2.974A2.983,2.983,0,0,0,226.35,99.247Z" fill="#9871f5"/>
  <path id="Path_19" data-name="Path 19" d="M226.35,120.02a2.991,2.991,0,1,0,2.991-2.974A2.983,2.983,0,0,0,226.35,120.02Z" fill="#9871f5"/>
  <path id="Path_20" data-name="Path 20" d="M226.35,140.774a2.991,2.991,0,1,0,2.991-2.973A2.982,2.982,0,0,0,226.35,140.774Z" fill="#9871f5"/>
  <path id="Path_21" data-name="Path 21" d="M226.35,161.545a2.991,2.991,0,1,0,2.991-2.974A2.983,2.983,0,0,0,226.35,161.545Z" fill="#9871f5"/>
  <path id="Path_22" data-name="Path 22" d="M226.35,182.3a2.991,2.991,0,1,0,2.991-2.974A2.983,2.983,0,0,0,226.35,182.3Z" fill="#9871f5"/>
  <path id="Path_23" data-name="Path 23" d="M226.35,203.071a2.991,2.991,0,1,0,2.991-2.973A2.982,2.982,0,0,0,226.35,203.071Z" fill="#9871f5"/>
  <path id="Path_24" data-name="Path 24" d="M205.461,99.247a2.991,2.991,0,1,0,2.991-2.974A2.983,2.983,0,0,0,205.461,99.247Z" fill="#9871f5"/>
  <path id="Path_25" data-name="Path 25" d="M205.461,120.02a2.991,2.991,0,1,0,2.991-2.974A2.983,2.983,0,0,0,205.461,120.02Z" fill="#9871f5"/>
  <path id="Path_26" data-name="Path 26" d="M205.461,140.774a2.991,2.991,0,1,0,2.991-2.973A2.982,2.982,0,0,0,205.461,140.774Z" fill="#9871f5"/>
  <path id="Path_27" data-name="Path 27" d="M205.461,161.545a2.991,2.991,0,1,0,2.991-2.974A2.983,2.983,0,0,0,205.461,161.545Z" fill="#9871f5"/>
  <path id="Path_28" data-name="Path 28" d="M205.461,182.3a2.991,2.991,0,1,0,2.991-2.974A2.983,2.983,0,0,0,205.461,182.3Z" fill="#9871f5"/>
  <path id="Path_29" data-name="Path 29" d="M205.461,203.071a2.991,2.991,0,1,0,2.991-2.973A2.982,2.982,0,0,0,205.461,203.071Z" fill="#9871f5"/>
  <path id="Path_30" data-name="Path 30" d="M184.588,99.247a2.991,2.991,0,1,0,2.991-2.974A2.983,2.983,0,0,0,184.588,99.247Z" fill="#9871f5"/>
  <path id="Path_31" data-name="Path 31" d="M184.588,120.02a2.991,2.991,0,1,0,2.991-2.974A2.983,2.983,0,0,0,184.588,120.02Z" fill="#9871f5"/>
  <path id="Path_32" data-name="Path 32" d="M184.588,140.774a2.991,2.991,0,1,0,2.991-2.973A2.982,2.982,0,0,0,184.588,140.774Z" fill="#9871f5"/>
  <path id="Path_33" data-name="Path 33" d="M184.588,161.545a2.991,2.991,0,1,0,2.991-2.974A2.983,2.983,0,0,0,184.588,161.545Z" fill="#9871f5"/>
  <path id="Path_34" data-name="Path 34" d="M184.588,182.3a2.991,2.991,0,1,0,2.991-2.974A2.983,2.983,0,0,0,184.588,182.3Z" fill="#9871f5"/>
  <path id="Path_35" data-name="Path 35" d="M184.588,203.071a2.991,2.991,0,1,0,2.991-2.973A2.982,2.982,0,0,0,184.588,203.071Z" fill="#9871f5"/>
  <path id="Path_36" data-name="Path 36" d="M587.788,553.706a2.991,2.991,0,1,0,2.991-2.974A2.982,2.982,0,0,0,587.788,553.706Z" fill="#9871f5"/>
  <path id="Path_37" data-name="Path 37" d="M587.789,574.46a2.991,2.991,0,1,0,2.991-2.973A2.982,2.982,0,0,0,587.789,574.46Z" fill="#9871f5"/>
  <path id="Path_38" data-name="Path 38" d="M587.789,595.23a2.991,2.991,0,1,0,2.991-2.974A2.983,2.983,0,0,0,587.789,595.23Z" fill="#9871f5"/>
  <path id="Path_39" data-name="Path 39" d="M566.9,553.7a2.991,2.991,0,1,0,2.991-2.973A2.982,2.982,0,0,0,566.9,553.7Z" fill="#9871f5"/>
  <path id="Path_40" data-name="Path 40" d="M566.9,574.46a2.991,2.991,0,1,0,2.991-2.973A2.982,2.982,0,0,0,566.9,574.46Z" fill="#9871f5"/>
  <path id="Path_41" data-name="Path 41" d="M566.9,595.228a2.991,2.991,0,1,0,2.991-2.973A2.982,2.982,0,0,0,566.9,595.228Z" fill="#9871f5"/>
  <path id="Path_42" data-name="Path 42" d="M661.5,187.974a2.991,2.991,0,1,0,2.99-2.973A2.982,2.982,0,0,0,661.5,187.974Z" fill="#9871f5"/>
  <path id="Path_43" data-name="Path 43" d="M661.5,208.728a2.991,2.991,0,1,0,2.991-2.974A2.983,2.983,0,0,0,661.5,208.728Z" fill="#9871f5"/>
  <path id="Path_44" data-name="Path 44" d="M661.5,229.5a2.991,2.991,0,1,0,2.991-2.973A2.982,2.982,0,0,0,661.5,229.5Z" fill="#9871f5"/>
  <path id="Path_45" data-name="Path 45" d="M640.609,187.974A2.991,2.991,0,1,0,643.6,185,2.983,2.983,0,0,0,640.609,187.974Z" fill="#9871f5"/>
  <path id="Path_46" data-name="Path 46" d="M640.609,208.73a2.991,2.991,0,1,0,2.99-2.974A2.983,2.983,0,0,0,640.609,208.73Z" fill="#9871f5"/>
  <path id="Path_47" data-name="Path 47" d="M640.609,229.5a2.991,2.991,0,1,0,2.99-2.974A2.982,2.982,0,0,0,640.609,229.5Z" fill="#9871f5"/>
  <path id="Path_48" data-name="Path 48" d="M254.711,738.983a2.99,2.99,0,1,0,2.99-2.973A2.981,2.981,0,0,0,254.711,738.983Z" fill="#9871f5"/>
  <path id="Path_49" data-name="Path 49" d="M233.822,738.983a2.99,2.99,0,1,0,2.99-2.973A2.981,2.981,0,0,0,233.822,738.983Z" fill="#9871f5"/>
  <path id="Path_50" data-name="Path 50" d="M212.948,738.983a2.991,2.991,0,1,0,2.991-2.973A2.982,2.982,0,0,0,212.948,738.983Z" fill="#9871f5"/>
  <path id="Path_51" data-name="Path 51" d="M192.059,738.983a2.991,2.991,0,1,0,2.991-2.973A2.982,2.982,0,0,0,192.059,738.983Z" fill="#9871f5"/>
  <path id="Path_52" data-name="Path 52" d="M171.186,738.983a2.991,2.991,0,1,0,2.991-2.973A2.982,2.982,0,0,0,171.186,738.983Z" fill="#9871f5"/>
  <path id="Path_53" data-name="Path 53" d="M150.3,738.983a2.991,2.991,0,1,0,2.991-2.973A2.982,2.982,0,0,0,150.3,738.983Z" fill="#9871f5"/>
  <path id="Path_54" data-name="Path 54" d="M129.424,738.983a2.991,2.991,0,1,0,2.99-2.973A2.982,2.982,0,0,0,129.424,738.983Z" fill="#9871f5"/>
  <path id="Path_55" data-name="Path 55" d="M254.711,718.212a2.99,2.99,0,1,0,2.99-2.974A2.982,2.982,0,0,0,254.711,718.212Z" fill="#9871f5"/>
  <path id="Path_56" data-name="Path 56" d="M233.822,718.212a2.99,2.99,0,1,0,2.99-2.974A2.982,2.982,0,0,0,233.822,718.212Z" fill="#9871f5"/>
  <path id="Path_57" data-name="Path 57" d="M212.948,718.212a2.991,2.991,0,1,0,2.991-2.974A2.983,2.983,0,0,0,212.948,718.212Z" fill="#9871f5"/>
  <path id="Path_58" data-name="Path 58" d="M192.059,718.212a2.991,2.991,0,1,0,2.991-2.974A2.983,2.983,0,0,0,192.059,718.212Z" fill="#9871f5"/>
  <path id="Path_59" data-name="Path 59" d="M171.186,718.212a2.991,2.991,0,1,0,2.991-2.974A2.983,2.983,0,0,0,171.186,718.212Z" fill="#9871f5"/>
  <path id="Path_60" data-name="Path 60" d="M150.3,718.212a2.991,2.991,0,1,0,2.991-2.974A2.983,2.983,0,0,0,150.3,718.212Z" fill="#9871f5"/>
  <path id="Path_61" data-name="Path 61" d="M129.424,718.212a2.991,2.991,0,1,0,2.99-2.974A2.983,2.983,0,0,0,129.424,718.212Z" fill="#9871f5"/>
  <path id="Path_62" data-name="Path 62" d="M254.711,697.456a2.99,2.99,0,1,0,2.99-2.974A2.982,2.982,0,0,0,254.711,697.456Z" fill="#9871f5"/>
  <path id="Path_63" data-name="Path 63" d="M233.822,697.456a2.99,2.99,0,1,0,2.99-2.974A2.982,2.982,0,0,0,233.822,697.456Z" fill="#9871f5"/>
  <path id="Path_64" data-name="Path 64" d="M212.948,697.456a2.991,2.991,0,1,0,2.991-2.974A2.983,2.983,0,0,0,212.948,697.456Z" fill="#9871f5"/>
  <path id="Path_65" data-name="Path 65" d="M192.059,697.456a2.991,2.991,0,1,0,2.991-2.974A2.983,2.983,0,0,0,192.059,697.456Z" fill="#9871f5"/>
  <path id="Path_66" data-name="Path 66" d="M171.186,697.456a2.991,2.991,0,1,0,2.991-2.974A2.983,2.983,0,0,0,171.186,697.456Z" fill="#9871f5"/>
  <path id="Path_67" data-name="Path 67" d="M150.3,697.456a2.991,2.991,0,1,0,2.991-2.974A2.983,2.983,0,0,0,150.3,697.456Z" fill="#9871f5"/>
  <path id="Path_68" data-name="Path 68" d="M129.424,697.456a2.991,2.991,0,1,0,2.99-2.974A2.983,2.983,0,0,0,129.424,697.456Z" fill="#9871f5"/>
  <path id="Path_69" data-name="Path 69" d="M254.708,676.686a2.991,2.991,0,1,0,2.991-2.974A2.983,2.983,0,0,0,254.708,676.686Z" fill="#9871f5"/>
  <path id="Path_70" data-name="Path 70" d="M233.822,676.685a2.99,2.99,0,1,0,2.99-2.973A2.981,2.981,0,0,0,233.822,676.685Z" fill="#9871f5"/>
  <path id="Path_71" data-name="Path 71" d="M212.948,676.685a2.991,2.991,0,1,0,2.991-2.973A2.982,2.982,0,0,0,212.948,676.685Z" fill="#9871f5"/>
  <path id="Path_72" data-name="Path 72" d="M192.059,676.685a2.991,2.991,0,1,0,2.991-2.973A2.982,2.982,0,0,0,192.059,676.685Z" fill="#9871f5"/>
  <path id="Path_73" data-name="Path 73" d="M171.186,676.685a2.991,2.991,0,1,0,2.991-2.973A2.982,2.982,0,0,0,171.186,676.685Z" fill="#9871f5"/>
  <path id="Path_74" data-name="Path 74" d="M150.3,676.685a2.991,2.991,0,1,0,2.991-2.973A2.982,2.982,0,0,0,150.3,676.685Z" fill="#9871f5"/>
  <path id="Path_75" data-name="Path 75" d="M129.424,676.685a2.991,2.991,0,1,0,2.99-2.973A2.982,2.982,0,0,0,129.424,676.685Z" fill="#9871f5"/>
</svg>
